name Walk5.mot
datacolumns 19
datarows 25
range 2.64800000 2.67200000
endheader

                time	   L_ground_force_vx	   L_ground_force_vy	   L_ground_force_vz	   L_ground_force_px	   L_ground_force_py	   L_ground_force_pz	   R_ground_force_vx	   R_ground_force_vy	   R_ground_force_vz	   R_ground_force_px	   R_ground_force_py	   R_ground_force_pz	   L_ground_torque_x	   L_ground_torque_y	   L_ground_torque_z	   R_ground_torque_x	   R_ground_torque_y	   R_ground_torque_z	
          2.64800000	          0.09748381	          0.31119023	         -0.00393146	         -0.00026435	          0.00000000	         -0.00002702	        -26.02247717	        710.95294479	        -42.14075273	          0.18504140	          0.00000000	          0.09197750	          0.00000000	          0.00087884	          0.00000000	          0.00000000	          5.71932302	          0.00000000	
          2.64900000	          0.09634553	          0.30301602	         -0.00429263	         -0.00028894	          0.00000000	         -0.00003006	        -25.70570859	        710.18294982	        -42.18331748	          0.18531064	          0.00000000	          0.09202166	          0.00000000	          0.00088038	          0.00000000	          0.00000000	          5.68324282	          0.00000000	
          2.65000000	          0.09493997	          0.29439178	         -0.00460687	         -0.00031034	          0.00000000	         -0.00003273	        -25.38995856	        709.40231006	        -42.22708024	          0.18558109	          0.00000000	          0.09206568	          0.00000000	          0.00087845	          0.00000000	          0.00000000	          5.64739626	          0.00000000	
          2.65100000	          0.09329516	          0.28538838	         -0.00487698	         -0.00032875	          0.00000000	         -0.00003505	        -25.07527128	        708.61113646	        -42.27194779	          0.18585275	          0.00000000	          0.09210955	          0.00000000	          0.00087337	          0.00000000	          0.00000000	          5.61178400	          0.00000000	
          2.65200000	          0.09143766	          0.27607206	         -0.00510570	         -0.00034436	          0.00000000	         -0.00003703	        -24.76168861	        707.80956650	        -42.31781278	          0.18612565	          0.00000000	          0.09215326	          0.00000000	          0.00086542	          0.00000000	          0.00000000	          5.57640525	          0.00000000	
          2.65300000	          0.08939257	          0.26650465	         -0.00529568	         -0.00035733	          0.00000000	         -0.00003871	        -24.44924991	        706.99776349	        -42.36455468	          0.18639977	          0.00000000	          0.09219678	          0.00000000	          0.00085488	          0.00000000	          0.00000000	          5.54125834	          0.00000000	
          2.65400000	          0.08718356	          0.25674364	         -0.00544949	         -0.00036785	          0.00000000	         -0.00004010	        -24.13799189	        706.17591527	        -42.41204080	          0.18667512	          0.00000000	          0.09224010	          0.00000000	          0.00084200	          0.00000000	          0.00000000	          5.50634107	          0.00000000	
          2.65500000	          0.08483293	          0.24684237	         -0.00556964	         -0.00037609	          0.00000000	         -0.00004122	        -23.82794853	        705.34423246	        -42.46012740	          0.18695171	          0.00000000	          0.09228323	          0.00000000	          0.00082704	          0.00000000	          0.00000000	          5.47165098	          0.00000000	
          2.65600000	          0.08236160	          0.23685020	         -0.00565852	         -0.00038221	          0.00000000	         -0.00004209	        -23.51915120	        704.50294687	        -42.50866074	          0.18722951	          0.00000000	          0.09232614	          0.00000000	          0.00081022	          0.00000000	          0.00000000	          5.43718545	          0.00000000	
          2.65700000	          0.07978916	          0.22681259	         -0.00571846	         -0.00038636	          0.00000000	         -0.00004272	        -23.21162895	        703.65231038	        -42.55747794	          0.18750852	          0.00000000	          0.09236883	          0.00000000	          0.00079177	          0.00000000	          0.00000000	          5.40294154	          0.00000000	
          2.65800000	          0.07713394	          0.21677136	         -0.00575170	         -0.00038870	          0.00000000	         -0.00004314	        -22.90540903	        702.79259436	        -42.60640768	          0.18778874	          0.00000000	          0.09241131	          0.00000000	          0.00077190	          0.00000000	          0.00000000	          5.36891572	          0.00000000	
          2.65900000	          0.07441300	          0.20676474	         -0.00576038	         -0.00038937	          0.00000000	         -0.00004337	        -22.60051752	        701.92408941	        -42.65527090	          0.18807014	          0.00000000	          0.09245355	          0.00000000	          0.00075080	          0.00000000	          0.00000000	          5.33510353	          0.00000000	
          2.66000000	          0.07164222	          0.19682761	         -0.00574655	         -0.00038851	          0.00000000	         -0.00004340	        -22.29697975	        701.04710517	        -42.70388153	          0.18835271	          0.00000000	          0.09249556	          0.00000000	          0.00072865	          0.00000000	          0.00000000	          5.30149935	          0.00000000	
          2.66100000	          0.06883631	          0.18699162	         -0.00571219	         -0.00038626	          0.00000000	         -0.00004328	        -21.99482027	        700.16196989	        -42.75204747	          0.18863643	          0.00000000	          0.09253733	          0.00000000	          0.00070564	          0.00000000	          0.00000000	          5.26809628	          0.00000000	
          2.66200000	          0.06600885	          0.17728532	         -0.00565916	         -0.00038274	          0.00000000	         -0.00004299	        -21.69406240	        699.26902976	        -42.79957191	          0.18892127	          0.00000000	          0.09257885	          0.00000000	          0.00068192	          0.00000000	          0.00000000	          5.23488621	          0.00000000	
          2.66300000	          0.06317236	          0.16773437	         -0.00558925	         -0.00037807	          0.00000000	         -0.00004258	        -21.39472741	        698.36864816	        -42.84625481	          0.18920720	          0.00000000	          0.09262010	          0.00000000	          0.00065764	          0.00000000	          0.00000000	          5.20185997	          0.00000000	
          2.66400000	          0.06033832	          0.15836165	         -0.00550417	         -0.00037237	          0.00000000	         -0.00004203	        -21.09683384	        697.46120536	        -42.89189441	          0.18949419	          0.00000000	          0.09266108	          0.00000000	          0.00063293	          0.00000000	          0.00000000	          5.16900746	          0.00000000	
          2.66500000	          0.05751724	          0.14918743	         -0.00540552	         -0.00036575	          0.00000000	         -0.00004137	        -20.80039698	        696.54709897	        -42.93628876	          0.18978218	          0.00000000	          0.09270178	          0.00000000	          0.00060794	          0.00000000	          0.00000000	          5.13631774	          0.00000000	
          2.66600000	          0.05471868	          0.14022950	         -0.00529484	         -0.00035831	          0.00000000	         -0.00004062	        -20.50542879	        695.62674558	        -42.97923711	          0.19007114	          0.00000000	          0.09274218	          0.00000000	          0.00058277	          0.00000000	          0.00000000	          5.10377911	          0.00000000	
          2.66700000	          0.05195130	          0.13150331	         -0.00517355	         -0.00035015	          0.00000000	         -0.00003977	        -20.21193803	        694.70058334	        -43.02054113	          0.19036100	          0.00000000	          0.09278226	          0.00000000	          0.00055754	          0.00000000	          0.00000000	          5.07137932	          0.00000000	
          2.66800000	          0.04922289	          0.12302214	         -0.00504303	         -0.00034136	          0.00000000	         -0.00003884	        -19.91993063	        693.76907452	        -43.06000591	          0.19065172	          0.00000000	          0.09282203	          0.00000000	          0.00053235	          0.00000000	          0.00000000	          5.03910572	          0.00000000	
          2.66900000	          0.04654047	          0.11479720	         -0.00490455	         -0.00033202	          0.00000000	         -0.00003785	        -19.62941003	        692.83270697	        -43.09744089	          0.19094325	          0.00000000	          0.09286148	          0.00000000	          0.00050729	          0.00000000	          0.00000000	          5.00694553	          0.00000000	
          2.67000000	          0.04391025	          0.10683778	         -0.00475931	         -0.00032223	          0.00000000	         -0.00003680	        -19.34037758	        691.89199364	        -43.13266074	          0.19123554	          0.00000000	          0.09290061	          0.00000000	          0.00048244	          0.00000000	          0.00000000	          4.97488597	          0.00000000	
          2.67100000	          0.04133774	          0.09915140	         -0.00460844	         -0.00031205	          0.00000000	         -0.00003570	        -19.05283278	        690.94747029	        -43.16548629	          0.19152856	          0.00000000	          0.09293944	          0.00000000	          0.00045789	          0.00000000	          0.00000000	          4.94291438	          0.00000000	
          2.67200000	          0.03882774	          0.09174387	         -0.00445298	         -0.00030155	          0.00000000	         -0.00003455	        -18.76677325	        689.99969220	        -43.19574544	          0.19182227	          0.00000000	          0.09297796	          0.00000000	          0.00043369	          0.00000000	          0.00000000	          4.91101820	          0.00000000	
